PathFileType	3	(X/Y/Z)	F:\ViconData\AntennenMessung\Messung1\Session1\ID15.trc
DataRate	CameraRate	NumFrames	NumMarkers	Units	OrigDataRate	OrigDataStartFrame	OrigNumFrames
120.0	120.0	6	70	mm	120.0	839	1342	
Frame#	Time	Ashort			Along			Atop			A4			Bshort			Blong			Btop			B4			Cshort			Clong			Ctop			C4			Dshort			Dlong			Dtop			D4			Eshort			Elong			Etop			E4			Fshort			Flong			Ftop			F4			Gshort			Glong			Gtop			G4			Hshort			Hlong			Htop			H4			I1			I2			I3			I4			I5			WandAshort			WandAlong			WandAtop			WandA4			WandA15			WandBshort			WandB4			WandB5			WandBtop			WandBlong			WandCshort			WandClong			WandCtop			WandC4			WandC5			Acenter			Aantenna			Bcenter			Bantenna			Ccenter			Cantenna			Dcenter			Dantenna			Ecenter			Eantenna			Fcenter			Fantenna			Gcenter			Gantenna			Hcenter			Hantenna			Icenter			Iantenna			
		X1	Y1	Z1	X2	Y2	Z2	X3	Y3	Z3	X4	Y4	Z4	X5	Y5	Z5	X6	Y6	Z6	X7	Y7	Z7	X8	Y8	Z8	X9	Y9	Z9	X10	Y10	Z10	X11	Y11	Z11	X12	Y12	Z12	X13	Y13	Z13	X14	Y14	Z14	X15	Y15	Z15	X16	Y16	Z16	X17	Y17	Z17	X18	Y18	Z18	X19	Y19	Z19	X20	Y20	Z20	X21	Y21	Z21	X22	Y22	Z22	X23	Y23	Z23	X24	Y24	Z24	X25	Y25	Z25	X26	Y26	Z26	X27	Y27	Z27	X28	Y28	Z28	X29	Y29	Z29	X30	Y30	Z30	X31	Y31	Z31	X32	Y32	Z32	X33	Y33	Z33	X34	Y34	Z34	X35	Y35	Z35	X36	Y36	Z36	X37	Y37	Z37	X38	Y38	Z38	X39	Y39	Z39	X40	Y40	Z40	X41	Y41	Z41	X42	Y42	Z42	X43	Y43	Z43	X44	Y44	Z44	X45	Y45	Z45	X46	Y46	Z46	X47	Y47	Z47	X48	Y48	Z48	X49	Y49	Z49	X50	Y50	Z50	X51	Y51	Z51	X52	Y52	Z52	X53	Y53	Z53	X54	Y54	Z54	X55	Y55	Z55	X56	Y56	Z56	X57	Y57	Z57	X58	Y58	Z58	X59	Y59	Z59	X60	Y60	Z60	X61	Y61	Z61	X62	Y62	Z62	X63	Y63	Z63	X64	Y64	Z64	X65	Y65	Z65	X66	Y66	Z66	X67	Y67	Z67	X68	Y68	Z68	X69	Y69	Z69	X70	Y70	Z70	
839	6.9833333	-1038.1816	214.62515	-1644.0995	-1109.4225	204.12524	-1599.2876	-1063.623	172.90767	-1625.8212	-1054.1448	262.21832	-1634.8021	-1352.6528	235.17075	1003.6664	-1281.3877	227.31609	1052.4397	-1322.7378	193.82845	1021.0571	-1284.4974	287.92108	1052.8762	813.95477	187.68907	1209.589	892.24799	178.5173	1179.2578	844.49384	145.57272	1198.2769	861.08447	292.31665	1167.5555	1115.7797	209.68694	-1401.5721	1056.2928	194.1169	-1460.1584	1095.1715	162.49829	-1423.785	1069.8019	238.91867	-1425.7462	-1204.5767	1686.0325	-1563.0881	-1129.121	1688.328	-1605.9832	-1173.1544	1724.4154	-1581.923	-1134.0471	1581.0342	-1603.7979	-1239.5682	1699.1436	1119.4753	-1308.3596	1699.6632	1069.801	-1270.4086	1736.3179	1096.8898	-1244.9795	1593.6759	1106.5253	988.90912	1664.2587	1162.2413	957.36517	1700.5062	1183.7583	922.05255	1662.3096	1214.8832	939.88391	1659.4622	1159.9338	999.11047	1668.4445	-1579.3612	1058.9028	1670.1593	-1518.572	1024.9946	1708.0547	-1551.0559	1059.2856	1672.144	-1585.349	-201.71083	1171.5983	-147.18228	-197.00821	1170.8076	-231.23021	-199.16502	1208.5846	-184.94498	-166.68109	1171.0344	-182.55426	-247.35164	1172.2644	-186.52255																																														-1068.5808	210.14471	-1624.9777	-1073.7266	248.79384	-1624.1023	-1321.3307	231.71849	1025.103	-1319.8914	270.47162	1029.241	848.20032	183.67732	1196.3221	851.97119	222.44359	1194.3334	1088.8789	202.64594	-1428.0656	1082.8732	240.96358	-1432.151	-1171.8772	1687.0272	-1581.6771	-1170.5455	1648.0508	-1581.4207	-1270.7417	1699.3789	1096.9648	-1271.0936	1660.3806	1097.0441	952.82361	1705.7249	1186.8561	972.77698	1733.8774	1168.682	1026.5367	1669.2311	-1551.4775	1028.0846	1630.264	-1551.9009	-199.61618	1171.2461	-184.61891	-200.08739	1132.2505	-184.27837
840	6.9916667	-1038.2028	214.62041	-1644.101	-1109.3873	204.18529	-1599.3513	-1063.7115	173.13678	-1625.8746	-1054.1567	262.2254	-1634.8148	-1352.6886	235.18086	1003.6652	-1281.4286	227.30995	1052.4802	-1322.6812	193.84134	1021.0212	-1284.4082	287.94702	1052.7528	814.0061	187.64581	1209.5345	892.18604	178.48645	1179.2881	844.48566	145.60356	1198.2587	861.10236	292.17957	1167.6152	1115.8168	209.96332	-1401.7336	1056.2683	194.09938	-1460.1521	1095.1573	162.52422	-1423.7494	1069.8052	238.91563	-1425.7649	-1204.5975	1686.0458	-1563.09	-1129.1068	1688.3431	-1605.9861	-1173.1277	1724.3439	-1581.9286	-1134.0433	1581.0381	-1603.8051	-1239.5649	1699.1326	1119.4775	-1309.264	1698.7917	1071.9237	-1270.4222	1736.3496	1096.9091	-1245.5673	1592.7871	1110.6492	988.95856	1664.2789	1162.2341	957.33575	1700.5352	1183.8353	921.9433	1662.329	1214.9504	939.87079	1659.4613	1159.9446	999.11145	1668.4578	-1579.3751	1058.9093	1670.1576	-1518.582	1024.9919	1708.0446	-1551.0526	1059.2982	1672.1527	-1585.3452	-201.71599	1171.6046	-147.19992	-197.0134	1170.8151	-231.22769	-199.15482	1208.5793	-184.94627	-166.68866	1171.0232	-182.55627	-247.54529	1172.4697	-186.60526																																														-1068.5891	210.16599	-1624.9987	-1073.6809	248.82137	-1624.0844	-1321.3257	231.71674	1025.1494	-1319.9391	270.46262	1029.3727	848.18811	183.64111	1196.3099	851.96155	222.40732	1194.3241	1088.8196	202.77118	-1428.2184	1082.7891	241.06676	-1432.4707	-1171.8585	1687.042	-1581.6931	-1170.5326	1648.0653	-1581.4471	-1271.0031	1698.9786	1098.0281	-1271.6089	1660.001	1099.1953	952.71802	1705.8295	1186.9896	972.66296	1734.022	1168.8684	1026.5399	1669.2374	-1551.4901	1028.0942	1630.2709	-1551.9294	-199.62167	1171.2529	-184.62166	-200.10945	1132.2574	-184.28255
841	7	-1038.207	214.56485	-1644.0631	-1109.4065	204.11945	-1599.3048	-1063.7213	173.1254	-1625.8524	-1054.1838	262.22861	-1634.822	-1352.8213	235.10912	1003.7228	-1281.4226	227.27495	1052.4453	-1322.67	193.90387	1020.9326	-1284.3906	287.86533	1052.8058	814.00513	187.70639	1209.5525	892.22461	178.43912	1179.2983	844.53601	145.5443	1198.338	861.06635	292.2562	1167.4375	1115.7692	209.67593	-1401.5732	1056.2854	194.10666	-1460.1364	1095.2262	162.59366	-1423.8174	1069.8069	238.85225	-1425.7035	-1204.5889	1686.0481	-1563.0847	-1129.1486	1688.3104	-1605.9301	-1173.1538	1724.4109	-1581.9205	-1134.0439	1581.0397	-1603.8073	-1239.3336	1698.8033	1119.3745	-1309.3148	1698.8859	1071.9518	-1270.4222	1736.3298	1096.8925	-1244.866	1593.8859	1106.4451	988.93469	1664.2847	1162.229	957.36456	1700.5116	1183.8658	922.07928	1662.2767	1214.9169	939.86115	1659.4226	1159.9574	999.12616	1668.4467	-1579.3395	1058.9061	1670.1584	-1518.5813	1024.9999	1708.0518	-1551.0544	1059.2782	1672.1465	-1585.3436	-201.73466	1171.5985	-147.18073	-196.95879	1171.0135	-231.47495	-199.1032	1208.4899	-184.95061	-166.68011	1171.0552	-182.5842	-247.552	1172.4832	-186.6113																																														-1068.5884	210.1077	-1624.9642	-1073.6759	248.76331	-1624.0359	-1321.4103	231.66255	1025.1577	-1320.1178	270.39935	1029.4923	848.26282	183.6476	1196.302	852.05402	222.40761	1194.231	1088.8938	202.64159	-1428.0325	1082.8356	240.95654	-1432.0653	-1171.8842	1687.0288	-1581.6588	-1170.5604	1648.0522	-1581.3861	-1271.1096	1698.8407	1097.8416	-1271.8242	1659.8597	1098.8284	952.80975	1705.738	1186.9873	972.7478	1733.9358	1168.8666	1026.5404	1669.2316	-1551.4764	1028.0868	1630.2645	-1551.9003	-199.6077	1171.338	-184.72136	-200.13725	1132.3423	-184.48076
842	7.0083333	-1038.1838	214.53561	-1644.0591	-1109.4203	204.13492	-1599.2928	-1063.6531	172.96523	-1625.8116	-1054.1812	262.25198	-1634.8422	-1352.7683	235.09435	1003.7373	-1281.4437	227.33836	1052.3947	-1322.7124	193.83524	1020.9734	-1284.5499	287.89822	1052.8636	814.05249	187.70772	1209.5417	892.245	178.4662	1179.2971	844.55615	145.51498	1198.307	861.33691	292.91037	1167.1132	1115.824	209.9566	-1401.7284	1056.2898	194.12193	-1460.1984	1095.2067	162.48102	-1423.7927	1069.8108	238.92104	-1425.7896	-1204.589	1686.0507	-1563.0771	-1129.1307	1688.3405	-1605.9817	-1173.1249	1724.3439	-1581.9202	-1134.0408	1581.0317	-1603.7974	-1239.5192	1699.0544	1119.4567	-1309.2778	1698.7892	1071.9209	-1270.443	1736.3734	1096.9098	-1244.9025	1593.778	1106.4318	988.89868	1664.2264	1162.2272	957.37885	1700.5579	1183.7826	922.05975	1662.2888	1214.9342	939.87604	1659.436	1159.9502	999.12732	1668.4224	-1579.3293	1058.9005	1670.1464	-1518.5834	1025.0013	1708.046	-1551.0597	1059.2808	1672.1431	-1585.3518	-201.72906	1171.5909	-147.18434	-197.0042	1170.8171	-231.22984	-199.0956	1208.4954	-184.94164	-166.70036	1171.0398	-182.56856	-247.51193	1172.4587	-186.61531																																														-1068.55	210.10204	-1624.9763	-1073.6475	248.75771	-1624.1067	-1321.4248	231.68599	1025.1195	-1320.1068	270.43198	1029.3636	848.28809	183.66144	1196.2994	852.0802	222.42297	1194.2595	1088.843	202.78029	-1428.2269	1082.7957	241.07744	-1432.441	-1171.8601	1687.0437	-1581.6863	-1170.5385	1648.0669	-1581.442	-1271.0317	1698.9347	1097.9828	-1271.6448	1659.9554	1099.1	952.90442	1705.7152	1186.8424	972.88031	1733.8395	1168.6493	1026.5393	1669.2128	-1551.4711	1028.0829	1630.2456	-1551.8839	-199.62404	1171.2462	-184.62843	-200.17723	1132.2513	-184.30055
843	7.0166667	-1038.1863	214.55156	-1644.0635	-1109.4126	204.13319	-1599.3022	-1063.6206	172.93889	-1625.849	-1054.1355	262.23734	-1634.8173	-1352.7756	235.10081	1003.7075	-1281.3696	227.33759	1052.3832	-1322.7594	193.80878	1021.0693	-1284.4325	287.96036	1052.7811	814.06903	187.67566	1209.5101	892.25385	178.45395	1179.292	844.50183	145.49808	1198.3201	861.24323	292.36136	1167.5195	1115.829	209.95079	-1401.7263	1056.2812	194.11018	-1460.1831	1095.2246	162.57574	-1423.7559	1069.7667	238.87262	-1425.7413	-1204.5991	1686.0428	-1563.0637	-1129.1166	1688.3262	-1605.9886	-1173.1318	1724.3582	-1581.927	-1134.0527	1581.0352	-1603.7911	-1239.5337	1699.0808	1119.4622	-1309.3577	1698.9028	1071.9668	-1270.4275	1736.3422	1096.9015	-1244.9364	1593.6816	1106.449	988.9115	1664.2351	1162.2388	957.49738	1700.3473	1183.7919	922.04181	1662.3419	1214.8859	939.81158	1659.4073	1159.9674	999.13239	1668.4254	-1579.3425	1058.9115	1670.1525	-1518.5784	1025.0004	1708.0583	-1551.05	1059.2772	1672.1392	-1585.3407	-201.72652	1171.5974	-147.16939	-197.0085	1170.8182	-231.23326	-199.10115	1208.4834	-184.9339	-166.67659	1171.0493	-182.56842	-247.53479	1172.4595	-186.60489																																														-1068.5237	210.11406	-1624.9983	-1073.6219	248.76927	-1624.1138	-1321.3901	231.68858	1025.1023	-1319.9894	270.4444	1029.2284	848.22424	183.64713	1196.3091	852.00647	222.40947	1194.266	1088.877	202.78113	-1428.1846	1082.8306	241.07794	-1432.403	-1171.8623	1687.0331	-1581.6802	-1170.5367	1648.0565	-1581.4225	-1271.0813	1699.0002	1098.0028	-1271.7639	1660.0232	1099.1523	952.80573	1705.7405	1187.0107	972.7832	1733.9226	1168.9093	1026.5511	1669.2174	-1551.4718	1028.1069	1630.2509	-1551.895	-199.62471	1171.2502	-184.61818	-200.17308	1132.2555	-184.28752
844	7.025	-1038.1992	214.57866	-1644.0824	-1109.4336	204.12012	-1599.2833	-1063.6642	172.93616	-1625.7889	-1054.1837	262.21826	-1634.8011	-1352.7375	235.12151	1003.7378	-1281.3778	227.36755	1052.3899	-1322.7009	193.95613	1020.9278	-1284.4872	287.93457	1052.7933	814.01617	187.72005	1209.5575	892.28076	178.56625	1179.2408	844.5105	145.53371	1198.2589	861.04547	292.21964	1167.3768	1115.7623	209.66182	-1401.5743	1056.2827	194.09886	-1460.1658	1095.1769	162.46367	-1423.7927	1069.7649	238.87061	-1425.7358	-1204.6021	1686.068	-1563.0463	-1129.1278	1688.3326	-1605.9474	-1173.1191	1724.3457	-1581.932	-1134.0295	1581.0298	-1603.822	-1239.562	1699.1157	1119.4607	-1309.236	1698.7307	1071.8958	-1270.407	1736.3223	1096.8925	-1244.9388	1593.6694	1106.6171	988.97797	1664.2896	1162.2476	957.39966	1700.4957	1183.8247	921.98999	1662.2861	1214.9198	939.84998	1659.428	1159.9075	999.12836	1668.4495	-1579.3605	1058.9124	1670.1592	-1518.5826	1025.0033	1708.0438	-1551.0549	1059.2926	1672.1323	-1585.3375	-201.72566	1171.5861	-147.18332	-197.01006	1170.8157	-231.23343	-199.10472	1208.5125	-184.93887	-166.67145	1171.0557	-182.58209	-247.54425	1172.4758	-186.61581																																														-1068.6025	210.11485	-1624.9618	-1073.7366	248.7659	-1624.1019	-1321.4302	231.71965	1025.0826	-1320.1265	270.46405	1029.3452	848.22089	183.71945	1196.3079	851.98785	222.48654	1194.3273	1088.8735	202.62628	-1428.0616	1082.8596	240.94398	-1432.1345	-1171.8479	1687.0507	-1581.6642	-1170.5194	1648.0743	-1581.3845	-1270.9695	1698.942	1098.0194	-1271.5563	1659.9642	1099.1945	952.78052	1705.7916	1186.9807	972.73529	1733.9865	1168.874	1026.5492	1669.2335	-1551.4838	1028.1013	1630.2668	-1551.9142	-199.62491	1171.2428	-184.62651	-200.16917	1132.2479	-184.29968
